<?xml version="1.0" encoding="UTF-8" standalone="no"?>
<svg
   xmlns:dc="http://purl.org/dc/elements/1.1/"
   xmlns:cc="http://creativecommons.org/ns#"
   xmlns:rdf="http://www.w3.org/1999/02/22-rdf-syntax-ns#"
   xmlns:svg="http://www.w3.org/2000/svg"
   xmlns="http://www.w3.org/2000/svg"
   xmlns:sodipodi="http://sodipodi.sourceforge.net/DTD/sodipodi-0.dtd"
   xmlns:inkscape="http://www.inkscape.org/namespaces/inkscape"
   width="8.5in"
   height="11in"
   viewBox="0 0 215.9 279.4"
   version="1.1"
   id="svg8"
   inkscape:version="1.0.1 (3bc2e813f5, 2020-09-07)"
   sodipodi:docname="Button Labels.svg">
  <defs
     id="defs2">
    <marker
       style="overflow:visible;"
       id="marker1883"
       refX="0.0"
       refY="0.0"
       orient="auto"
       inkscape:stockid="Arrow2Send"
       inkscape:isstock="true">
      <path
         transform="scale(0.3) rotate(180) translate(-2.3,0)"
         d="M 8.7185878,4.0337352 L -2.2072895,0.016013256 L 8.7185884,-4.0017078 C 6.9730900,-1.6296469 6.9831476,1.6157441 8.7185878,4.0337352 z "
         style="fill-rule:evenodd;stroke-width:0.625;stroke-linejoin:round;stroke:#000000;stroke-opacity:1;fill:#000000;fill-opacity:1"
         id="path1881" />
    </marker>
    <marker
       style="overflow:visible;"
       id="Arrow2Send"
       refX="0.0"
       refY="0.0"
       orient="auto"
       inkscape:stockid="Arrow2Send"
       inkscape:isstock="true"
       inkscape:collect="always">
      <path
         transform="scale(0.3) rotate(180) translate(-2.3,0)"
         d="M 8.7185878,4.0337352 L -2.2072895,0.016013256 L 8.7185884,-4.0017078 C 6.9730900,-1.6296469 6.9831476,1.6157441 8.7185878,4.0337352 z "
         style="fill-rule:evenodd;stroke-width:0.625;stroke-linejoin:round;stroke:#000000;stroke-opacity:1;fill:#000000;fill-opacity:1"
         id="path988" />
    </marker>
    <marker
       style="overflow:visible;"
       id="Arrow2Lend"
       refX="0.0"
       refY="0.0"
       orient="auto"
       inkscape:stockid="Arrow2Lend"
       inkscape:isstock="true">
      <path
         transform="scale(1.1) rotate(180) translate(1,0)"
         d="M 8.7185878,4.0337352 L -2.2072895,0.016013256 L 8.7185884,-4.0017078 C 6.9730900,-1.6296469 6.9831476,1.6157441 8.7185878,4.0337352 z "
         style="fill-rule:evenodd;stroke-width:0.625;stroke-linejoin:round;stroke:#000000;stroke-opacity:1;fill:#000000;fill-opacity:1"
         id="path976" />
    </marker>
    <marker
       style="overflow:visible;"
       id="marker1693"
       refX="0.0"
       refY="0.0"
       orient="auto"
       inkscape:stockid="Arrow1Mend"
       inkscape:isstock="true">
      <path
         transform="scale(0.4) rotate(180) translate(10,0)"
         style="fill-rule:evenodd;stroke:#000000;stroke-width:1pt;stroke-opacity:1;fill:#000000;fill-opacity:1"
         d="M 0.0,0.0 L 5.0,-5.0 L -12.5,0.0 L 5.0,5.0 L 0.0,0.0 z "
         id="path1691" />
    </marker>
    <marker
       style="overflow:visible"
       id="Arrow1Sstart"
       refX="0.0"
       refY="0.0"
       orient="auto"
       inkscape:stockid="Arrow1Sstart"
       inkscape:isstock="true">
      <path
         transform="scale(0.2) translate(6,0)"
         style="fill-rule:evenodd;stroke:#000000;stroke-width:1pt;stroke-opacity:1;fill:#000000;fill-opacity:1"
         d="M 0.0,0.0 L 5.0,-5.0 L -12.5,0.0 L 5.0,5.0 L 0.0,0.0 z "
         id="path967" />
    </marker>
    <marker
       style="overflow:visible"
       id="Arrow1Mstart"
       refX="0.0"
       refY="0.0"
       orient="auto"
       inkscape:stockid="Arrow1Mstart"
       inkscape:isstock="true">
      <path
         transform="scale(0.4) translate(10,0)"
         style="fill-rule:evenodd;stroke:#000000;stroke-width:1pt;stroke-opacity:1;fill:#000000;fill-opacity:1"
         d="M 0.0,0.0 L 5.0,-5.0 L -12.5,0.0 L 5.0,5.0 L 0.0,0.0 z "
         id="path961" />
    </marker>
    <marker
       style="overflow:visible;"
       id="marker1363"
       refX="0.0"
       refY="0.0"
       orient="auto"
       inkscape:stockid="Arrow1Mend"
       inkscape:isstock="true">
      <path
         transform="scale(0.4) rotate(180) translate(10,0)"
         style="fill-rule:evenodd;stroke:#000000;stroke-width:1pt;stroke-opacity:1;fill:#000000;fill-opacity:1"
         d="M 0.0,0.0 L 5.0,-5.0 L -12.5,0.0 L 5.0,5.0 L 0.0,0.0 z "
         id="path1361" />
    </marker>
    <marker
       style="overflow:visible;"
       id="Arrow1Send"
       refX="0.0"
       refY="0.0"
       orient="auto"
       inkscape:stockid="Arrow1Send"
       inkscape:isstock="true">
      <path
         transform="scale(0.2) rotate(180) translate(6,0)"
         style="fill-rule:evenodd;stroke:#000000;stroke-width:1pt;stroke-opacity:1;fill:#000000;fill-opacity:1"
         d="M 0.0,0.0 L 5.0,-5.0 L -12.5,0.0 L 5.0,5.0 L 0.0,0.0 z "
         id="path970" />
    </marker>
    <marker
       style="overflow:visible;"
       id="marker1259"
       refX="0.0"
       refY="0.0"
       orient="auto"
       inkscape:stockid="Arrow1Mend"
       inkscape:isstock="true">
      <path
         transform="scale(0.4) rotate(180) translate(10,0)"
         style="fill-rule:evenodd;stroke:#000000;stroke-width:1pt;stroke-opacity:1;fill:#000000;fill-opacity:1"
         d="M 0.0,0.0 L 5.0,-5.0 L -12.5,0.0 L 5.0,5.0 L 0.0,0.0 z "
         id="path1257" />
    </marker>
    <marker
       style="overflow:visible;"
       id="Arrow1Mend"
       refX="0.0"
       refY="0.0"
       orient="auto"
       inkscape:stockid="Arrow1Mend"
       inkscape:isstock="true"
       inkscape:collect="always">
      <path
         transform="scale(0.4) rotate(180) translate(10,0)"
         style="fill-rule:evenodd;stroke:#000000;stroke-width:1pt;stroke-opacity:1;fill:#000000;fill-opacity:1"
         d="M 0.0,0.0 L 5.0,-5.0 L -12.5,0.0 L 5.0,5.0 L 0.0,0.0 z "
         id="path964" />
    </marker>
    <marker
       style="overflow:visible;"
       id="Arrow1Lend"
       refX="0.0"
       refY="0.0"
       orient="auto"
       inkscape:stockid="Arrow1Lend"
       inkscape:isstock="true">
      <path
         transform="scale(0.8) rotate(180) translate(12.5,0)"
         style="fill-rule:evenodd;stroke:#000000;stroke-width:1pt;stroke-opacity:1;fill:#000000;fill-opacity:1"
         d="M 0.0,0.0 L 5.0,-5.0 L -12.5,0.0 L 5.0,5.0 L 0.0,0.0 z "
         id="path958" />
    </marker>
  </defs>
  <sodipodi:namedview
     id="base"
     pagecolor="#ffffff"
     bordercolor="#666666"
     borderopacity="1.0"
     inkscape:pageopacity="0.0"
     inkscape:pageshadow="2"
     inkscape:zoom="0.98277078"
     inkscape:cx="429.55967"
     inkscape:cy="191.49468"
     inkscape:document-units="in"
     inkscape:current-layer="layer1"
     inkscape:document-rotation="0"
     showgrid="true"
     units="in"
     inkscape:snap-global="true"
     inkscape:window-width="1368"
     inkscape:window-height="849"
     inkscape:window-x="-8"
     inkscape:window-y="-8"
     inkscape:window-maximized="1">
    <inkscape:grid
       type="xygrid"
       id="grid833"
       units="in"
       spacingx="19.05"
       spacingy="12.7"
       snapvisiblegridlinesonly="true" />
  </sodipodi:namedview>
  <metadata
     id="metadata5">
    <rdf:RDF>
      <cc:Work
         rdf:about="">
        <dc:format>image/svg+xml</dc:format>
        <dc:type
           rdf:resource="http://purl.org/dc/dcmitype/StillImage" />
        <dc:title></dc:title>
      </cc:Work>
    </rdf:RDF>
  </metadata>
  <g
     inkscape:label="Layer 1"
     inkscape:groupmode="layer"
     id="layer1">
    <g
       id="g2112"
       transform="translate(9.1059418,6.5396465)">
      <path
         id="path885"
         style="fill:#000000;fill-opacity:1;stroke:#000000;stroke-width:0.264583;stroke-linecap:round;stroke-linejoin:bevel"
         d="M 26.838237,18.584467 C 26.840036,19.396306 26.183847,20.056141 25.372011,20.05884 24.560175,20.061539 23.899613,19.406082 23.896014,18.594249 L 23.896018,16.354682 C 23.894219,15.542843 24.550408,14.883008 25.362244,14.880309 26.17408,14.87761 26.834642,15.533067 26.838241,16.3449 Z"
         sodipodi:nodetypes="csccscc" />
      <path
         id="path887"
         style="fill:none;stroke:#000000;stroke-width:0.529167;stroke-linecap:round;stroke-linejoin:bevel;stroke-miterlimit:4;stroke-dasharray:none"
         d="M 27.631649,18.778594 C 27.634453,20.044198 26.611497,21.072838 25.345897,21.077046 24.080297,21.081254 23.050523,20.059438 23.044913,18.793843"
         sodipodi:nodetypes="csc" />
      <path
         style="fill:none;stroke:#000000;stroke-width:0.529167;stroke-linecap:butt;stroke-linejoin:miter;stroke-miterlimit:4;stroke-dasharray:none;stroke-opacity:1"
         d="M 25.350228,21.102971 V 22.658639"
         id="path889" />
      <path
         style="fill:none;stroke:#000000;stroke-width:0.529167;stroke-linecap:round;stroke-linejoin:miter;stroke-miterlimit:4;stroke-dasharray:none;stroke-opacity:1"
         d="M 23.555483,22.558746 H 27.174102"
         id="path891" />
      <path
         style="fill:none;stroke:#ffffff;stroke-width:1.05833;stroke-linecap:round;stroke-linejoin:miter;stroke-miterlimit:4;stroke-dasharray:none;stroke-opacity:1"
         d="M 27.954862,15.507212 22.585329,20.060577"
         id="path893" />
      <path
         style="fill:none;stroke:#000000;stroke-width:0.529167;stroke-linecap:round;stroke-linejoin:miter;stroke-miterlimit:4;stroke-dasharray:none;stroke-opacity:1"
         d="M 27.954862,15.507212 22.585329,20.060577"
         id="path895" />
      <path
         style="fill:#000000;fill-opacity:1;stroke:#000000;stroke-width:0.399911;stroke-linecap:round;stroke-linejoin:bevel;stroke-miterlimit:4;stroke-dasharray:none;stroke-opacity:1"
         id="path897"
         sodipodi:type="arc"
         sodipodi:cx="32.840553"
         sodipodi:cy="16.580843"
         sodipodi:rx="0.87627751"
         sodipodi:ry="0.87627751"
         sodipodi:start="0"
         sodipodi:end="6.2787522"
         sodipodi:arc-type="slice"
         d="M 33.716831,16.580843 A 0.87627751,0.87627751 0 0 1 32.841524,17.45712 0.87627751,0.87627751 0 0 1 31.964278,16.582785 0.87627751,0.87627751 0 0 1 32.83764,15.70457 0.87627751,0.87627751 0 0 1 33.716822,16.576958 L 32.840553,16.580843 Z" />
      <path
         id="path899"
         style="fill:#000000;fill-opacity:1;stroke:#000000;stroke-width:0.64406;stroke-linecap:round;stroke-linejoin:bevel;stroke-miterlimit:4;stroke-dasharray:none;stroke-opacity:1"
         d="M 31.429304,21.965125 V 19.229802 C 31.427578,18.451001 32.057063,17.818018 32.835861,17.815429 33.614659,17.81284 34.24834,18.441623 34.251792,19.220418 V 21.965605 Z"
         sodipodi:nodetypes="cscccc" />
      <path
         id="path902"
         style="fill:#000000;fill-opacity:1;stroke:#000000;stroke-width:0.264583;stroke-linecap:round;stroke-linejoin:bevel"
         d="M 25.915908,31.363098 C 25.917707,32.174937 25.261518,32.834772 24.449682,32.837471 23.637846,32.84017 22.977284,32.184713 22.973685,31.37288 L 22.973689,29.133313 C 22.97189,28.321474 23.628079,27.661639 24.439915,27.65894 25.251751,27.656241 25.912313,28.311698 25.915912,29.123531 Z"
         sodipodi:nodetypes="csccscc" />
      <path
         id="path904"
         style="fill:none;stroke:#000000;stroke-width:0.529167;stroke-linecap:round;stroke-linejoin:bevel;stroke-miterlimit:4;stroke-dasharray:none"
         d="M 26.70932,31.557225 C 26.712124,32.822829 25.689168,33.851469 24.423568,33.855677 23.157968,33.859885 22.128194,32.838069 22.122584,31.572474"
         sodipodi:nodetypes="csc" />
      <path
         style="fill:none;stroke:#000000;stroke-width:0.529167;stroke-linecap:butt;stroke-linejoin:miter;stroke-miterlimit:4;stroke-dasharray:none;stroke-opacity:1"
         d="M 24.427899,33.881602 V 35.43727"
         id="path906" />
      <path
         style="fill:none;stroke:#000000;stroke-width:0.529167;stroke-linecap:round;stroke-linejoin:miter;stroke-miterlimit:4;stroke-dasharray:none;stroke-opacity:1"
         d="M 22.633154,35.337377 H 26.251773"
         id="path908" />
      <path
         style="fill:none;stroke:#ffffff;stroke-width:1.05833;stroke-linecap:round;stroke-linejoin:miter;stroke-miterlimit:4;stroke-dasharray:none;stroke-opacity:1"
         d="M 27.032533,28.285843 21.663,32.839208"
         id="path910" />
      <path
         style="fill:none;stroke:#000000;stroke-width:0.529167;stroke-linecap:round;stroke-linejoin:miter;stroke-miterlimit:4;stroke-dasharray:none;stroke-opacity:1"
         d="M 27.032533,28.285843 21.663,32.839208"
         id="path912" />
      <g
         id="g920"
         transform="matrix(0.73393771,0,0,0.73393771,8.0636192,8.3942562)">
        <path
           style="fill:#000000;fill-opacity:1;stroke:#000000;stroke-width:0.399911;stroke-linecap:round;stroke-linejoin:bevel;stroke-miterlimit:4;stroke-dasharray:none;stroke-opacity:1"
           id="path914"
           sodipodi:type="arc"
           sodipodi:cx="32.840553"
           sodipodi:cy="29.280838"
           sodipodi:rx="0.87627751"
           sodipodi:ry="0.87627751"
           sodipodi:start="0"
           sodipodi:end="6.2787522"
           sodipodi:arc-type="slice"
           d="M 33.716831,29.280838 A 0.87627751,0.87627751 0 0 1 32.841524,30.157115 0.87627751,0.87627751 0 0 1 31.964278,29.28278 0.87627751,0.87627751 0 0 1 32.83764,28.404565 0.87627751,0.87627751 0 0 1 33.716822,29.276953 L 32.840553,29.280838 Z" />
        <path
           id="path916"
           style="fill:#000000;fill-opacity:1;stroke:#000000;stroke-width:0.64406;stroke-linecap:round;stroke-linejoin:bevel;stroke-miterlimit:4;stroke-dasharray:none;stroke-opacity:1"
           d="M 31.429304,34.665124 V 31.929801 C 31.427578,31.151 32.057063,30.518017 32.835861,30.515428 33.614659,30.512839 34.24834,31.141622 34.251792,31.920417 V 34.665604 Z"
           sodipodi:nodetypes="cscccc" />
      </g>
      <g
         id="g926"
         transform="matrix(0.73393771,0,0,0.73393771,5.4385584,9.813208)">
        <path
           style="fill:#000000;fill-opacity:1;stroke:#000000;stroke-width:0.399911;stroke-linecap:round;stroke-linejoin:bevel;stroke-miterlimit:4;stroke-dasharray:none;stroke-opacity:1"
           id="path922"
           sodipodi:type="arc"
           sodipodi:cx="32.840553"
           sodipodi:cy="29.280838"
           sodipodi:rx="0.87627751"
           sodipodi:ry="0.87627751"
           sodipodi:start="0"
           sodipodi:end="6.2787522"
           sodipodi:arc-type="slice"
           d="M 33.716831,29.280838 A 0.87627751,0.87627751 0 0 1 32.841524,30.157115 0.87627751,0.87627751 0 0 1 31.964278,29.28278 0.87627751,0.87627751 0 0 1 32.83764,28.404565 0.87627751,0.87627751 0 0 1 33.716822,29.276953 L 32.840553,29.280838 Z" />
        <path
           id="path924"
           style="fill:#000000;fill-opacity:1;stroke:#000000;stroke-width:0.64406;stroke-linecap:round;stroke-linejoin:bevel;stroke-miterlimit:4;stroke-dasharray:none;stroke-opacity:1"
           d="M 31.429304,34.665124 V 31.929801 C 31.427578,31.151 32.057063,30.518017 32.835861,30.515428 33.614659,30.512839 34.24834,31.141622 34.251792,31.920417 V 34.665604 Z"
           sodipodi:nodetypes="cscccc" />
      </g>
      <g
         id="g932"
         transform="matrix(0.73393771,0,0,0.73393771,10.730224,9.813208)">
        <path
           style="fill:#000000;fill-opacity:1;stroke:#000000;stroke-width:0.399911;stroke-linecap:round;stroke-linejoin:bevel;stroke-miterlimit:4;stroke-dasharray:none;stroke-opacity:1"
           id="path928"
           sodipodi:type="arc"
           sodipodi:cx="32.840553"
           sodipodi:cy="29.280838"
           sodipodi:rx="0.87627751"
           sodipodi:ry="0.87627751"
           sodipodi:start="0"
           sodipodi:end="6.2787522"
           sodipodi:arc-type="slice"
           d="M 33.716831,29.280838 A 0.87627751,0.87627751 0 0 1 32.841524,30.157115 0.87627751,0.87627751 0 0 1 31.964278,29.28278 0.87627751,0.87627751 0 0 1 32.83764,28.404565 0.87627751,0.87627751 0 0 1 33.716822,29.276953 L 32.840553,29.280838 Z" />
        <path
           id="path930"
           style="fill:#000000;fill-opacity:1;stroke:#000000;stroke-width:0.64406;stroke-linecap:round;stroke-linejoin:bevel;stroke-miterlimit:4;stroke-dasharray:none;stroke-opacity:1"
           d="M 31.429304,34.665124 V 31.929801 C 31.427578,31.151 32.057063,30.518017 32.835861,30.515428 33.614659,30.512839 34.24834,31.141622 34.251792,31.920417 V 34.665604 Z"
           sodipodi:nodetypes="cscccc" />
      </g>
      <rect
         style="fill:none;fill-opacity:1;stroke:#000000;stroke-width:0.5334;stroke-linecap:butt;stroke-linejoin:miter;stroke-miterlimit:4;stroke-dasharray:none;stroke-opacity:1"
         id="rect944"
         width="8.0343132"
         height="4.9964633"
         x="43.511703"
         y="28.073572" />
      <path
         id="path946"
         style="fill:none;fill-opacity:1;stroke:#000000;stroke-width:0.711752;stroke-linecap:butt;stroke-linejoin:miter;stroke-miterlimit:4;stroke-dasharray:none;stroke-opacity:1"
         d="M 47.608013,32.23593 C 46.666122,32.236974 45.901432,31.474822 45.899343,30.532933 45.897255,29.591045 46.658559,28.825509 47.600445,28.822377 48.542331,28.819246 49.30871,29.579701 49.312895,30.525366 49.312902,31.471042 48.549902,32.234887 47.608013,32.23593 Z"
         sodipodi:nodetypes="ssscs" />
      <rect
         style="fill:none;fill-opacity:1;stroke:#000000;stroke-width:0.5334;stroke-linecap:butt;stroke-linejoin:miter;stroke-miterlimit:4;stroke-dasharray:none;stroke-opacity:1"
         id="rect949"
         width="2.8516588"
         height="0.96243489"
         x="46.199806"
         y="27.082277" />
      <path
         style="fill:none;stroke:#000000;stroke-width:0.529167;stroke-linecap:butt;stroke-linejoin:miter;stroke-miterlimit:4;stroke-dasharray:none;stroke-opacity:1;marker-end:url(#Arrow1Mend)"
         d="M 42.534362,32.206856 C 40.828037,32.366825 35.335808,35.246245 47.440042,35.512859"
         id="path951"
         sodipodi:nodetypes="cc" />
      <path
         style="fill:none;stroke:#000000;stroke-width:0.521746;stroke-linecap:butt;stroke-linejoin:miter;stroke-miterlimit:4;stroke-dasharray:none;stroke-opacity:1;marker-start:url(#Arrow1Sstart)"
         d="M 52.759931,32.237046 C 54.442326,32.874676 58.89772,35.233809 49.09615,35.496683"
         id="path1359"
         sodipodi:nodetypes="cc" />
      <g
         id="g1590"
         transform="matrix(0.80217827,0,0,0.80217827,9.2654457,3.6114062)">
        <g
           id="g1579"
           transform="matrix(0.89211779,0,0,0.80341882,5.653893,5.6714397)">
          <path
             id="rect934"
             style="fill:#000000;fill-opacity:1;stroke:#000000;stroke-width:0.573168;stroke-linecap:butt;stroke-linejoin:bevel;stroke-miterlimit:4;stroke-dasharray:none;stroke-opacity:1"
             d="M 40.360395,14.951657 H 51.772478 V 22.702747 H 40.360395 Z"
             sodipodi:nodetypes="ccccc" />
          <path
             id="path937"
             style="fill:#000000;fill-opacity:1;stroke:#000000;stroke-width:0.529167;stroke-linecap:butt;stroke-linejoin:bevel;stroke-miterlimit:4;stroke-dasharray:none;stroke-opacity:1"
             inkscape:transform-center-x="0.92589806"
             d="M 51.737744,17.021281 54.515436,15.41758 V 21.832385 L 51.737744,20.228684"
             sodipodi:nodetypes="cccc" />
        </g>
        <path
           style="fill:#000000;fill-opacity:1;stroke:#000000;stroke-width:0.529167;stroke-linecap:butt;stroke-linejoin:miter;stroke-miterlimit:4;stroke-dasharray:none;stroke-opacity:1"
           id="path1581"
           sodipodi:type="arc"
           sodipodi:cx="44.243679"
           sodipodi:cy="15.868904"
           sodipodi:rx="2.3286147"
           sodipodi:ry="2.3286147"
           sodipodi:start="0"
           sodipodi:end="6.2787522"
           sodipodi:arc-type="slice"
           d="M 46.572294,15.868904 A 2.3286147,2.3286147 0 0 1 44.24626,18.197517 2.3286147,2.3286147 0 0 1 41.91507,15.874066 2.3286147,2.3286147 0 0 1 44.235937,13.540302 2.3286147,2.3286147 0 0 1 46.572271,15.858581 L 44.243679,15.868904 Z" />
        <path
           style="fill:#000000;fill-opacity:1;stroke:#000000;stroke-width:0.529167;stroke-linecap:butt;stroke-linejoin:miter;stroke-miterlimit:4;stroke-dasharray:none;stroke-opacity:1"
           id="path1583"
           sodipodi:type="arc"
           sodipodi:cx="49.535351"
           sodipodi:cy="15.868904"
           sodipodi:rx="2.3286147"
           sodipodi:ry="2.3286147"
           sodipodi:start="0"
           sodipodi:end="6.2787522"
           sodipodi:arc-type="slice"
           d="M 51.863966,15.868904 A 2.3286147,2.3286147 0 0 1 49.537932,18.197517 2.3286147,2.3286147 0 0 1 47.206742,15.874066 2.3286147,2.3286147 0 0 1 49.527609,13.540302 2.3286147,2.3286147 0 0 1 51.863943,15.858581 L 49.535351,15.868904 Z" />
      </g>
      <rect
         style="fill:none;fill-opacity:1;stroke:#000000;stroke-width:0.529167;stroke-linecap:butt;stroke-linejoin:miter;stroke-miterlimit:4;stroke-dasharray:none;stroke-opacity:1"
         id="rect1592"
         width="12.628257"
         height="6.8067198"
         x="60.275291"
         y="14.419497" />
      <path
         style="fill:none;stroke:#000000;stroke-width:0.529167;stroke-linecap:butt;stroke-linejoin:miter;stroke-miterlimit:4;stroke-dasharray:none;stroke-opacity:1"
         d="M 66.627184,21.359324 V 23.40642"
         id="path1594" />
      <path
         style="fill:none;stroke:#000000;stroke-width:0.529167;stroke-linecap:round;stroke-linejoin:miter;stroke-miterlimit:4;stroke-dasharray:none;stroke-opacity:1"
         d="M 61.690436,23.272131 H 71.578296"
         id="path1596" />
      <rect
         style="fill:none;fill-opacity:1;stroke:#000000;stroke-width:0.529167;stroke-linecap:butt;stroke-linejoin:miter;stroke-miterlimit:4;stroke-dasharray:none;stroke-opacity:1"
         id="rect1598"
         width="12.628257"
         height="6.8067198"
         x="60.275291"
         y="27.421339" />
      <path
         style="fill:none;stroke:#000000;stroke-width:0.529167;stroke-linecap:butt;stroke-linejoin:miter;stroke-miterlimit:4;stroke-dasharray:none;stroke-opacity:1"
         d="M 66.627184,34.361166 V 36.408262"
         id="path1600" />
      <path
         style="fill:none;stroke:#000000;stroke-width:0.529167;stroke-linecap:round;stroke-linejoin:miter;stroke-miterlimit:4;stroke-dasharray:none;stroke-opacity:1"
         d="M 61.690436,36.273973 H 71.578296"
         id="path1602" />
      <path
         style="fill:none;stroke:#000000;stroke-width:1.05833;stroke-linecap:round;stroke-linejoin:miter;stroke-miterlimit:4;stroke-dasharray:none;stroke-opacity:1"
         d="M 65.571549,29.513143 V 32.39459"
         id="path1604"
         sodipodi:nodetypes="cc" />
      <path
         style="fill:none;stroke:#000000;stroke-width:1.05833;stroke-linecap:round;stroke-linejoin:miter;stroke-miterlimit:4;stroke-dasharray:none;stroke-opacity:1"
         d="M 67.688217,29.513143 V 32.39459"
         id="path1608"
         sodipodi:nodetypes="cc" />
      <path
         style="fill:#000000;fill-opacity:1;stroke:#000000;stroke-width:1.05833;stroke-linecap:round;stroke-linejoin:miter;stroke-miterlimit:4;stroke-dasharray:none;stroke-opacity:1"
         id="path1610"
         sodipodi:type="arc"
         sodipodi:cx="86.144058"
         sodipodi:cy="18.860353"
         sodipodi:rx="3.311892"
         sodipodi:ry="3.311892"
         sodipodi:start="0"
         sodipodi:end="6.2787522"
         sodipodi:arc-type="slice"
         d="M 89.45595,18.860353 A 3.311892,3.311892 0 0 1 86.147729,22.172243 3.311892,3.311892 0 0 1 82.832174,18.867694 3.311892,3.311892 0 0 1 86.133047,15.54848 3.311892,3.311892 0 0 1 89.455918,18.845672 L 86.144058,18.860353 Z" />
      <path
         id="path1612"
         style="fill:none;fill-opacity:1;stroke:#000000;stroke-width:0.79375;stroke-linecap:round;stroke-linejoin:miter;stroke-miterlimit:4;stroke-dasharray:none;stroke-opacity:1"
         d="M 86.217453,34.80252 C 84.38978,34.804546 82.905949,33.325641 82.901898,31.497971 82.897847,29.670301 84.375107,28.184833 86.202771,28.178757 88.030435,28.17268 89.517539,29.648292 89.525658,31.483289 89.525674,33.318304 88.045126,34.800494 86.217453,34.80252 Z"
         sodipodi:nodetypes="ssscs" />
      <path
         style="fill:none;stroke:#000000;stroke-width:1.05833;stroke-linecap:round;stroke-linejoin:miter;stroke-miterlimit:4;stroke-dasharray:none;stroke-opacity:1"
         d="M 85.150728,30.001211 V 32.882658"
         id="path1615"
         sodipodi:nodetypes="cc" />
      <path
         style="fill:none;stroke:#000000;stroke-width:1.05833;stroke-linecap:round;stroke-linejoin:miter;stroke-miterlimit:4;stroke-dasharray:none;stroke-opacity:1"
         d="M 87.267396,30.001211 V 32.882658"
         id="path1617"
         sodipodi:nodetypes="cc" />
      <g
         id="g1641"
         transform="matrix(0.82465705,0,0,0.82465705,17.410001,4.2370984)">
        <rect
           style="fill:#000000;fill-opacity:1;stroke:#000000;stroke-width:0.79375;stroke-linecap:round;stroke-linejoin:miter;stroke-miterlimit:4;stroke-dasharray:none;stroke-opacity:1"
           id="rect1619"
           width="2.9765193"
           height="2.2729783"
           x="96.601578"
           y="14.666122" />
        <rect
           style="fill:#000000;fill-opacity:1;stroke:#000000;stroke-width:0.79375;stroke-linecap:round;stroke-linejoin:miter;stroke-miterlimit:4;stroke-dasharray:none;stroke-opacity:1"
           id="rect1621"
           width="2.9765193"
           height="2.2729783"
           x="100.83492"
           y="14.666122" />
        <rect
           style="fill:#000000;fill-opacity:1;stroke:#000000;stroke-width:0.79375;stroke-linecap:round;stroke-linejoin:miter;stroke-miterlimit:4;stroke-dasharray:none;stroke-opacity:1"
           id="rect1623"
           width="2.9765193"
           height="2.2729783"
           x="96.601578"
           y="18.099699" />
        <rect
           style="fill:#000000;fill-opacity:1;stroke:#000000;stroke-width:0.79375;stroke-linecap:round;stroke-linejoin:miter;stroke-miterlimit:4;stroke-dasharray:none;stroke-opacity:1"
           id="rect1625"
           width="2.9765193"
           height="2.2729783"
           x="100.83492"
           y="18.099699" />
      </g>
      <rect
         style="fill:#000000;fill-opacity:1;stroke:#000000;stroke-width:1.11068;stroke-linecap:round;stroke-linejoin:miter;stroke-miterlimit:4;stroke-dasharray:none;stroke-opacity:1"
         id="rect1627"
         width="4.164969"
         height="3.1805212"
         x="105.84682"
         y="17.125746" />
      <rect
         style="fill:#000000;fill-opacity:1;stroke:#000000;stroke-width:0.48072;stroke-linecap:round;stroke-linejoin:miter;stroke-miterlimit:4;stroke-dasharray:none;stroke-opacity:1"
         id="rect1629"
         width="1.8026744"
         height="1.3765876"
         x="111.22725"
         y="15.754333" />
      <rect
         style="fill:#000000;fill-opacity:1;stroke:#000000;stroke-width:0.48072;stroke-linecap:round;stroke-linejoin:miter;stroke-miterlimit:4;stroke-dasharray:none;stroke-opacity:1"
         id="rect1631"
         width="1.8026744"
         height="1.3765876"
         x="111.22725"
         y="18.063995" />
      <rect
         style="fill:#000000;fill-opacity:1;stroke:#000000;stroke-width:0.48072;stroke-linecap:round;stroke-linejoin:miter;stroke-miterlimit:4;stroke-dasharray:none;stroke-opacity:1"
         id="rect1633"
         width="1.8026744"
         height="1.3765876"
         x="111.22725"
         y="20.373659" />
      <g
         id="g1647"
         transform="matrix(1.0505885,0,0,1.0505885,89.982539,-2.4850205)">
        <path
           style="fill:#000000;fill-opacity:1;stroke:#000000;stroke-width:0.399911;stroke-linecap:round;stroke-linejoin:bevel;stroke-miterlimit:4;stroke-dasharray:none;stroke-opacity:1"
           id="path1643"
           sodipodi:type="arc"
           sodipodi:cx="32.840553"
           sodipodi:cy="29.280838"
           sodipodi:rx="0.87627751"
           sodipodi:ry="0.87627751"
           sodipodi:start="0"
           sodipodi:end="6.2787522"
           sodipodi:arc-type="slice"
           d="M 33.716831,29.280838 A 0.87627751,0.87627751 0 0 1 32.841524,30.157115 0.87627751,0.87627751 0 0 1 31.964278,29.28278 0.87627751,0.87627751 0 0 1 32.83764,28.404565 0.87627751,0.87627751 0 0 1 33.716822,29.276953 L 32.840553,29.280838 Z" />
        <path
           id="path1645"
           style="fill:#000000;fill-opacity:1;stroke:#000000;stroke-width:0.64406;stroke-linecap:round;stroke-linejoin:bevel;stroke-miterlimit:4;stroke-dasharray:none;stroke-opacity:1"
           d="M 31.429304,34.665124 V 31.929801 C 31.427578,31.151 32.057063,30.518017 32.835861,30.515428 33.614659,30.512839 34.24834,31.141622 34.251792,31.920417 V 34.665604 Z"
           sodipodi:nodetypes="cscccc" />
      </g>
      <g
         id="g1653"
         transform="matrix(1.0505885,0,0,1.0505885,86.224922,-0.45387479)">
        <path
           style="fill:#000000;fill-opacity:1;stroke:#000000;stroke-width:0.399911;stroke-linecap:round;stroke-linejoin:bevel;stroke-miterlimit:4;stroke-dasharray:none;stroke-opacity:1"
           id="path1649"
           sodipodi:type="arc"
           sodipodi:cx="32.840553"
           sodipodi:cy="29.280838"
           sodipodi:rx="0.87627751"
           sodipodi:ry="0.87627751"
           sodipodi:start="0"
           sodipodi:end="6.2787522"
           sodipodi:arc-type="slice"
           d="M 33.716831,29.280838 A 0.87627751,0.87627751 0 0 1 32.841524,30.157115 0.87627751,0.87627751 0 0 1 31.964278,29.28278 0.87627751,0.87627751 0 0 1 32.83764,28.404565 0.87627751,0.87627751 0 0 1 33.716822,29.276953 L 32.840553,29.280838 Z" />
        <path
           id="path1651"
           style="fill:#000000;fill-opacity:1;stroke:#000000;stroke-width:0.64406;stroke-linecap:round;stroke-linejoin:bevel;stroke-miterlimit:4;stroke-dasharray:none;stroke-opacity:1"
           d="M 31.429304,34.665124 V 31.929801 C 31.427578,31.151 32.057063,30.518017 32.835861,30.515428 33.614659,30.512839 34.24834,31.141622 34.251792,31.920417 V 34.665604 Z"
           sodipodi:nodetypes="cscccc" />
      </g>
      <g
         id="g1659"
         transform="matrix(1.0505885,0,0,1.0505885,93.799619,-0.45387479)">
        <path
           style="fill:#000000;fill-opacity:1;stroke:#000000;stroke-width:0.399911;stroke-linecap:round;stroke-linejoin:bevel;stroke-miterlimit:4;stroke-dasharray:none;stroke-opacity:1"
           id="path1655"
           sodipodi:type="arc"
           sodipodi:cx="32.840553"
           sodipodi:cy="29.280838"
           sodipodi:rx="0.87627751"
           sodipodi:ry="0.87627751"
           sodipodi:start="0"
           sodipodi:end="6.2787522"
           sodipodi:arc-type="slice"
           d="M 33.716831,29.280838 A 0.87627751,0.87627751 0 0 1 32.841524,30.157115 0.87627751,0.87627751 0 0 1 31.964278,29.28278 0.87627751,0.87627751 0 0 1 32.83764,28.404565 0.87627751,0.87627751 0 0 1 33.716822,29.276953 L 32.840553,29.280838 Z" />
        <path
           id="path1657"
           style="fill:#000000;fill-opacity:1;stroke:#000000;stroke-width:0.64406;stroke-linecap:round;stroke-linejoin:bevel;stroke-miterlimit:4;stroke-dasharray:none;stroke-opacity:1"
           d="M 31.429304,34.665124 V 31.929801 C 31.427578,31.151 32.057063,30.518017 32.835861,30.515428 33.614659,30.512839 34.24834,31.141622 34.251792,31.920417 V 34.665604 Z"
           sodipodi:nodetypes="cscccc" />
      </g>
      <path
         style="fill:none;stroke:#000000;stroke-width:0.264583px;stroke-linecap:butt;stroke-linejoin:miter;stroke-opacity:1"
         d="M 133.35,12.7 V 38.1"
         id="path1661" />
      <path
         id="rect1663"
         style="fill:none;fill-opacity:1;stroke:#000000;stroke-width:0.7874;stroke-linecap:round;stroke-linejoin:round;stroke-miterlimit:4;stroke-dasharray:none;stroke-opacity:1"
         d="M 118.41683,14.856995 H 129.10216 V 20.875199 H 123.23033 L 120.30716,22.991865 120.559,20.875199 H 118.41683 Z"
         sodipodi:nodetypes="cccccccc" />
      <path
         style="fill:none;stroke:#000000;stroke-width:0.529167;stroke-linecap:butt;stroke-linejoin:miter;stroke-miterlimit:4;stroke-dasharray:none;stroke-opacity:1"
         d="M 119.98478,16.73109 H 126.95304"
         id="path1671" />
      <path
         style="fill:none;stroke:#000000;stroke-width:0.529167;stroke-linecap:butt;stroke-linejoin:miter;stroke-miterlimit:4;stroke-dasharray:none;stroke-opacity:1"
         d="M 119.98478,18.318591 H 124.30721"
         id="path1675"
         sodipodi:nodetypes="cc" />
      <path
         id="path1677"
         style="fill:none;fill-opacity:1;stroke:#000000;stroke-width:0.79375;stroke-linecap:round;stroke-linejoin:miter;stroke-miterlimit:4;stroke-dasharray:none;stroke-opacity:1;marker-end:url(#Arrow2Send)"
         d="M 101.67978,30.20915 C 101.84626,29.812776 102.08765,29.455559 102.38629,29.155266 102.98356,28.554681 103.80979,28.181795 104.72362,28.178757 105.63746,28.175719 106.46615,28.543103 107.0674,29.140621 107.36802,29.43938 107.55144,29.815787 107.7809,30.191962"
         sodipodi:nodetypes="csssc" />
      <path
         id="path1879"
         style="fill:none;fill-opacity:1;stroke:#000000;stroke-width:0.79375;stroke-linecap:round;stroke-linejoin:miter;stroke-miterlimit:4;stroke-dasharray:none;stroke-opacity:1;marker-end:url(#marker1883)"
         d="M 108.02061,32.986715 C 107.85413,33.383089 107.61274,33.740306 107.3141,34.040599 106.71683,34.641184 105.8906,35.01407 104.97677,35.017108 104.06293,35.020146 103.23424,34.652762 102.63299,34.055244 102.33237,33.756485 102.14895,33.380078 101.91949,33.003903"
         sodipodi:nodetypes="csssc" />
      <path
         style="fill:none;stroke:#000000;stroke-width:0.264583px;stroke-linecap:butt;stroke-linejoin:miter;stroke-opacity:1"
         d="M 19.05,12.7 H 133.35"
         id="path1991" />
      <path
         style="fill:none;stroke:#000000;stroke-width:0.264583px;stroke-linecap:butt;stroke-linejoin:miter;stroke-opacity:1"
         d="M 133.35,38.1 H 19.05"
         id="path1993" />
      <path
         style="fill:none;stroke:#000000;stroke-width:0.264583px;stroke-linecap:butt;stroke-linejoin:miter;stroke-opacity:1"
         d="M 19.05,12.7 V 38.1"
         id="path1995" />
      <path
         style="fill:none;stroke:#000000;stroke-width:0.264583px;stroke-linecap:butt;stroke-linejoin:miter;stroke-opacity:1"
         d="M 38.1,12.7 V 38.1"
         id="path1997" />
      <path
         style="fill:none;stroke:#000000;stroke-width:0.264583px;stroke-linecap:butt;stroke-linejoin:miter;stroke-opacity:1"
         d="M 57.149999,12.7 V 38.1"
         id="path1999" />
      <path
         style="fill:none;stroke:#000000;stroke-width:0.264583px;stroke-linecap:butt;stroke-linejoin:miter;stroke-opacity:1"
         d="M 76.199999,12.7 V 38.1"
         id="path2001" />
      <path
         style="fill:none;stroke:#000000;stroke-width:0.264583px;stroke-linecap:butt;stroke-linejoin:miter;stroke-opacity:1"
         d="M 95.249999,12.7 V 38.1"
         id="path2003" />
      <path
         style="fill:none;stroke:#000000;stroke-width:0.264583px;stroke-linecap:butt;stroke-linejoin:miter;stroke-opacity:1"
         d="M 114.3,12.7 V 38.1"
         id="path2005" />
      <path
         style="fill:none;stroke:#000000;stroke-width:0.264583px;stroke-linecap:butt;stroke-linejoin:miter;stroke-opacity:1"
         d="M 19.05,25.4 H 133.35"
         id="path2007" />
    </g>
  </g>
</svg>
