<?xml version="1.0" encoding="UTF-8" standalone="no"?>
<svg
   xmlns:dc="http://purl.org/dc/elements/1.1/"
   xmlns:cc="http://creativecommons.org/ns#"
   xmlns:rdf="http://www.w3.org/1999/02/22-rdf-syntax-ns#"
   xmlns:svg="http://www.w3.org/2000/svg"
   xmlns="http://www.w3.org/2000/svg"
   xmlns:xlink="http://www.w3.org/1999/xlink"
   xmlns:sodipodi="http://sodipodi.sourceforge.net/DTD/sodipodi-0.dtd"
   xmlns:inkscape="http://www.inkscape.org/namespaces/inkscape"
   version="1.1"
   id="Layer_1"
   x="0px"
   y="0px"
   viewBox="0 0 120 60"
   style="enable-background:new 0 0 120 60;"
   xml:space="preserve"
   sodipodi:docname="zoom-seeklogo.com-1.svg"
   inkscape:version="1.0.2 (e86c870879, 2021-01-15, custom)"><metadata
   id="metadata69"><rdf:RDF><cc:Work
       rdf:about=""><dc:format>image/svg+xml</dc:format><dc:type
         rdf:resource="http://purl.org/dc/dcmitype/StillImage" /></cc:Work></rdf:RDF></metadata><defs
   id="defs67" /><sodipodi:namedview
   pagecolor="#ffffff"
   bordercolor="#666666"
   borderopacity="1"
   objecttolerance="10"
   gridtolerance="10"
   guidetolerance="10"
   inkscape:pageopacity="0"
   inkscape:pageshadow="2"
   inkscape:window-width="1368"
   inkscape:window-height="850"
   id="namedview65"
   showgrid="false"
   inkscape:zoom="6.7882251"
   inkscape:cx="71.673347"
   inkscape:cy="37.219088"
   inkscape:window-x="-6"
   inkscape:window-y="-6"
   inkscape:window-maximized="1"
   inkscape:current-layer="Layer_1" />
<style
   type="text/css"
   id="style2">
	.st0{fill:#4A8CFF;}
	.st1{fill:#FFFFFF;}
	.st2{clip-path:url(#SVGID_2_);}
	.st3{fill:#E5E5E4;}
	.st4{clip-path:url(#SVGID_4_);}
	.st5{clip-path:url(#SVGID_6_);}
	.st6{clip-path:url(#SVGID_8_);}
</style>









<g
   id="g99"
   transform="matrix(0.03758019,0,0,0.03758019,52.311332,28.135507)"><path
     class="st0"
     d="m 187.7,-64.8 h -0.1 c -52.4,0 -94.8,42.5 -94.8,94.8 0,52.4 42.4,94.9 94.8,94.9 52.4,0 94.9,-42.4 94.9,-94.8 0,-52.4 -42.4,-94.9 -94.8,-94.9 z m 40.1,135.1 c -22.3,22.2 -58.3,22.1 -80.5,-0.1 -22.1,-22.2 -22.1,-58.2 0,-80.4 22.2,-22.3 58.2,-22.3 80.5,-0.1 0,0 0.1,0.1 0.1,0.1 22.3,22.2 22.2,58.3 -0.1,80.5 z"
     id="path4" /><path
     class="st0"
     d="M 73.8,87.5 64.3,87 H -21.1 L 92.8,-26.9 92.3,-36.4 c -0.4,-15.3 -12.7,-27.6 -28,-28 l -9.5,-0.5 H -87.5 l 0.5,9.5 c 0.7,15.1 12.8,27.3 28,28 l 9.5,0.5 H 35.9 L -78,87 l 0.5,9.5 c 0.5,15.2 12.8,27.5 28,28 l 9.5,0.5 h 142.3 l -0.5,-9.5 c -1.3,-15.7 -12.4,-27.1 -28,-28 z"
     id="path6" /><path
     class="st1"
     d="m 227.8,-10.4 c -22.3,-22.2 -58.3,-22.1 -80.5,0.1 -22.1,22.2 -22.1,58.2 0,80.4 22.2,22.3 58.2,22.3 80.5,0.1 22.3,-22.2 22.3,-58.2 0.1,-80.5 0,0 0,0 -0.1,-0.1 z"
     id="path8" /><path
     class="st0"
     d="m 681.1,-64.8 c -21.8,0 -42.5,9.4 -56.9,25.7 -25.2,-28.6 -67.8,-34.1 -99.4,-12.7 -7.3,-8.3 -23.9,-13 -33.4,-13 V 125 l 9.5,-0.5 c 15.8,-1 27.4,-12.2 28,-28 L 529.4,87 V 20.6 l 0.5,-9.5 c 0,-6.6 1.7,-13.1 4.7,-19 10.4,-18.1 33.6,-24.3 51.8,-13.8 5.7,3.3 10.5,8.1 13.8,13.8 h -0.1 c 3.1,5.9 4.7,12.4 4.7,19 l 0.5,9.5 V 87 l 0.5,9.5 c 0.6,15.2 12.7,27.4 27.9,28 l 9.5,0.5 V 20.6 l 0.5,-9.5 c 0,-6.7 1.6,-13.2 4.7,-19.1 10.5,-18.1 33.8,-24.3 51.9,-13.7 5.7,3.3 10.5,8.1 13.8,13.8 3,5.9 4.6,12.4 4.6,19 l 0.5,9.5 V 87 l 0.5,9.5 c 0.5,15.2 12.7,27.4 27.9,28 l 9.5,0.5 V 11.1 C 757,-30.8 723,-64.8 681.1,-64.8 Z"
     id="path10" /><path
     class="st0"
     d="m 454,-37 c -17.8,-17.8 -41.9,-27.8 -67.1,-27.8 -25.2,0 -49.3,10 -67.1,27.8 -37,37.1 -37,97.2 0.1,134.2 37.1,37 97.2,37 134.2,-0.1 C 491.2,60.1 491.1,0 454,-37 Z M 427.1,70.3 c -22.3,22.2 -58.3,22.1 -80.5,-0.1 -22.1,-22.2 -22.1,-58.2 0,-80.4 22.2,-22.3 58.2,-22.3 80.5,-0.1 0,0 0.1,0.1 0.1,0.1 22.3,22.2 22.2,58.3 -0.1,80.5 z"
     id="path12" /><path
     class="st1"
     d="m 427.1,-10.4 c -22.3,-22.2 -58.3,-22.1 -80.5,0.1 -22.1,22.2 -22.1,58.2 0,80.4 22.2,22.3 58.2,22.3 80.5,0.1 22.3,-22.2 22.3,-58.2 0.1,-80.5 0,0 0,0 -0.1,-0.1 z"
     id="path14" /><g
     id="g50">
	<defs
   id="defs41">
		<circle
   id="SVGID_5_"
   cx="-395.89999"
   cy="30.1"
   r="218.2" />
	</defs>
	<clipPath
   id="SVGID_6_">
		<use
   xlink:href="#SVGID_5_"
   style="overflow:visible"
   id="use43"
   x="0"
   y="0"
   width="100%"
   height="100%" />
	</clipPath>
	<g
   class="st5"
   clip-path="url(#SVGID_6_)"
   id="g48">
		<path
   class="st0"
   d="m -626,-200 h 460.2 V 260.2 H -626 Z"
   id="path46" />
	</g>
</g><g
     id="g62">
	<defs
   id="defs53">
		<path
   id="SVGID_7_"
   d="m -329.5,1.8 61.7,-45.1 c 5.4,-4.4 9.5,-3.4 9.5,4.7 V 98.9 c 0,9.1 -5.1,8.1 -9.5,4.7 l -61.7,-45.1 z m -208.8,-40 V 64.2 c 0.1,23.2 19,41.9 42.2,41.8 h 149.5 c 4.2,0 7.6,-3.4 7.7,-7.6 V -4.1 c -0.1,-23.2 -19,-41.9 -42.2,-41.8 h -149.5 c -4.2,0.1 -7.6,3.4 -7.7,7.7 z" />
	</defs>
	<clipPath
   id="SVGID_8_">
		<use
   xlink:href="#SVGID_7_"
   style="overflow:visible"
   id="use55"
   x="0"
   y="0"
   width="100%"
   height="100%" />
	</clipPath>
	<g
   class="st6"
   clip-path="url(#SVGID_8_)"
   id="g60">
		<path
   style="color:#000000;font-style:normal;font-variant:normal;font-weight:normal;font-stretch:normal;font-size:medium;line-height:normal;font-family:sans-serif;font-variant-ligatures:normal;font-variant-position:normal;font-variant-caps:normal;font-variant-numeric:normal;font-variant-alternates:normal;font-variant-east-asian:normal;font-feature-settings:normal;font-variation-settings:normal;text-indent:0;text-align:start;text-decoration:none;text-decoration-line:none;text-decoration-style:solid;text-decoration-color:#000000;letter-spacing:normal;word-spacing:normal;text-transform:none;writing-mode:lr-tb;direction:ltr;text-orientation:mixed;dominant-baseline:auto;baseline-shift:baseline;text-anchor:start;white-space:normal;shape-padding:0;shape-margin:0;inline-size:0;clip-rule:nonzero;display:inline;overflow:visible;visibility:visible;opacity:1;isolation:auto;mix-blend-mode:normal;color-interpolation:sRGB;color-interpolation-filters:linearRGB;solid-color:#000000;solid-opacity:1;vector-effect:none;fill:#ffffff;fill-opacity:1;fill-rule:nonzero;stroke:none;stroke-width:1;stroke-linecap:butt;stroke-linejoin:miter;stroke-miterlimit:4;stroke-dasharray:none;stroke-dashoffset:0;stroke-opacity:1;color-rendering:auto;image-rendering:auto;shape-rendering:auto;text-rendering:auto;enable-background:accumulate;stop-color:#000000;stop-opacity:1"
   d="m -550.1,-57.7 h 303.7 v 175.5 h -303.7 z"
   id="path58" />
	</g>
</g></g>
</svg>
